<?xml version="1.0" standalone="no"?>
<!DOCTYPE svg PUBLIC "-//W3C//DTD SVG 20010904//EN"
 "http://www.w3.org/TR/2001/REC-SVG-20010904/DTD/svg10.dtd">
<svg version="1.0" xmlns="http://www.w3.org/2000/svg"
 width="225.000000pt" height="225.000000pt" viewBox="0 0 225.000000 225.000000"
 preserveAspectRatio="xMidYMid meet">
<metadata>
Created by potrace 1.11, written by Peter Selinger 2001-2013
</metadata>
<g transform="translate(0.000000,225.000000) scale(0.100000,-0.100000)"
fill="#000000" stroke="none">
<path d="M667 2150 c-104 -45 -233 -134 -325 -224 -332 -322 -430 -819 -246
-1248 80 -188 241 -378 416 -492 71 -46 211 -116 232 -116 4 0 6 475 6 1055 0
580 -3 1055 -7 1055 -5 -1 -39 -14 -76 -30z"/>
<path d="M1500 1125 c0 -754 3 -1055 11 -1055 27 0 203 95 275 148 377 281
542 746 424 1197 -63 240 -215 462 -424 617 -72 53 -248 148 -275 148 -8 0
-11 -301 -11 -1055z"/>
</g>
</svg>
